Coordinates
version=1
nRows=12
nColumns=24
inDegrees=yes

Units are S.I. units (second, meters, Newtons, ...)
Angles are in degrees.

endheader
time	pelvis_tilt	pelvis_list	pelvis_rotation	pelvis_tx	pelvis_ty	pelvis_tz	hip_flexion_r	hip_adduction_r	hip_rotation_r	knee_angle_r	ankle_angle_r	subtalar_angle_r	mtp_angle_r	hip_flexion_l	hip_adduction_l	hip_rotation_l	knee_angle_l	ankle_angle_l	subtalar_angle_l	mtp_angle_l	lumbar_extension	lumbar_bending	lumbar_rotation
      3.93000000	     -7.97907849	     -0.74297867	     -6.67896539	     -1.13819298	     -0.03732715	     -0.27975857	     -8.75134454	      1.28832738	      5.12578639	    -19.14354272	      3.97599557	     11.64735208	     18.91895878	     36.00849359	     -2.70455691	     -0.72273864	    -11.64579269	      6.70024983	     13.97281337	    -13.46479228	      6.84105884	      2.34066558	      5.75273466
      3.93500000	     -7.96255263	     -0.59044072	     -6.99231078	     -1.13022698	     -0.03841821	     -0.27976673	     -8.87054692	      0.95780483	      5.28247814	    -19.84031305	      3.45583071	     12.10359644	     19.28563074	     36.01157962	     -2.61007418	     -0.71670549	    -12.49910670	      6.32486686	     13.80441001	    -13.24479295	      6.96141077	      2.13012472	      6.03576994
      3.94000000	     -7.92593213	     -0.38419399	     -7.11611125	     -1.12209121	     -0.03953151	     -0.28002075	     -9.01048987	      0.52940674	      4.89367852	    -20.45596973	      2.65218499	     12.74669693	     20.87489246	     36.00317283	     -2.34452025	     -0.63736092	    -13.30825881	      5.43206590	     13.40703319	    -12.10244479	      7.09570529	      1.81487814	      6.08658010
      3.94500000	     -7.97417076	     -0.12553623	     -7.33522657	     -1.11394524	     -0.04060004	     -0.28010283	     -9.02524602	      0.07782318	      4.83149217	    -21.12493794	      1.80743789	     13.17287482	     22.06737447	     36.06922638	     -2.10846704	     -0.71757730	    -14.11120951	      4.34799971	     12.91601223	    -10.92557460	      7.32847611	      1.45940723	      6.25410285
      3.95000000	     -8.04649252	      0.10141270	     -7.55435806	     -1.10595493	     -0.04165212	     -0.28022923	     -8.92648992	     -0.35623407	      4.67592795	    -21.95811264	      1.08187675	     13.91821638	     22.78978608	     36.21116127	     -1.90999368	     -0.81615646	    -15.03437305	      3.41319761	     12.47477819	    -10.45678102	      7.55059117	      1.14162306	      6.41440476
      3.95500000	     -8.11958219	      0.38269264	     -7.64600939	     -1.09780100	     -0.04264992	     -0.28050847	     -8.85888636	     -0.85108148	      4.31795202	    -22.66197967	     -0.01367000	     14.44289116	     24.34015098	     36.36202239	     -1.57553963	     -0.82988550	    -15.90736168	      2.06798942	     11.70911664	     -9.26692641	      7.80788344	      0.74853886	      6.50155792
      3.96000000	     -8.26530256	      0.63212671	     -7.79345035	     -1.08985255	     -0.04363072	     -0.28077062	     -8.60351772	     -1.32478465	      3.97778579	    -23.56438391	     -0.97636512	     15.28971992	     25.27268179	     36.64509598	     -1.32378787	     -0.92201817	    -16.91080212	      0.94243109	     11.07099631	     -8.78919851	      8.10180802	      0.41262570	      6.65929500
      3.96500000	     -8.40693692	      0.96668281	     -7.85374144	     -1.08186009	     -0.04449948	     -0.28106989	     -8.34853621	     -1.87420749	      3.60387158	    -24.41286793	     -2.21223014	     15.88658139	     26.73955650	     36.92300439	     -0.94133651	     -0.96833486	    -17.86473029	     -0.39264656	     10.26065755	     -8.13673819	      8.40707478	     -0.05006807	      6.67088135
      3.97000000	     -8.61900166	      1.31026468	     -8.04107799	     -1.07395698	     -0.04532754	     -0.28122300	     -7.90925513	     -2.43829608	      3.39105460	    -25.46043138	     -3.28465012	     16.71864581	     27.29292098	     37.30668491	     -0.65268012	     -1.19176322	    -18.94052522	     -1.36794471	      9.64321757	     -8.20792274	      8.77702856	     -0.48173304	      6.87174090
      3.97500000	     -8.77145010	      1.57105859	     -7.98567602	     -1.06612984	     -0.04609054	     -0.28177212	     -7.57085371	     -2.94425241	      2.78827166	    -26.37082241	     -4.83881876	     17.43638556	     29.06010387	     37.65126912	     -0.23613371	     -0.94574317	    -20.01043496	     -2.50955453	      8.69048806	     -8.06925042	      9.04042343	     -0.86507328	      6.83626529
      3.98000000	     -8.98635031	      1.89977443	     -8.06539447	     -1.05839343	     -0.04685024	     -0.28211105	     -7.04115767	     -3.51220658	      2.42455018	    -27.50657563	     -6.17868933	     18.24739997	     29.97574681	     38.07420608	      0.12754598	     -0.96485844	    -21.13871499	     -3.36565544	      7.95812365	     -8.31919593	      9.37165683	     -1.29679608	      6.88714924
      3.98500000	     -9.15102383	      2.23899367	     -8.03754177	     -1.05050648	     -0.04747414	     -0.28255065	     -6.60649931	     -4.09343265	      1.97468828	    -28.52795610	     -7.86217285	     18.83458241	     31.34059180	     38.41359025	      0.59442303	     -0.80885322	    -22.23806672	     -4.06550952	      7.20020422	     -8.80126281	      9.67110898	     -1.76333770	      6.89904116
